<?xml version="1.0" encoding="UTF-8"?>
<!DOCTYPE svg PUBLIC "-//W3C//DTD SVG 1.1//EN" "http://www.w3.org/Graphics/SVG/1.1/DTD/svg11.dtd">
<!-- Creator: CorelDRAW 2017 -->
<svg xmlns="http://www.w3.org/2000/svg" fill="#626262" xml:space="preserve" width="3.00817cm" height="1.92538cm" version="1.1" viewBox="0 0 25.2 16.13" xmlns:xlink="http://www.w3.org/1999/xlink">
   <path d="M20.16 8.66c0,0.15 0.07,0.22 0.18,0.28 0.46,0.21 0.7,0 0.8,0.01 0.2,0.02 0.34,0.38 0.21,0.56 -0.05,0.07 -0.2,0.13 -0.31,0.13 -0.34,0 -0.25,-0.19 -0.84,0.02 -0.39,0.14 -0.86,0.47 -1.12,0.79 -0.23,0.27 -0.3,0.38 -0.47,0.67 -0.07,0.11 -0.3,0.52 -0.01,0.52 0.26,0 0.52,-0.03 0.75,-0.06 0.19,-0.03 0.43,-0.11 0.6,-0.11 -0,0.12 -0.26,0.37 -0.37,0.46 -0.16,0.13 -0.34,0.23 -0.54,0.3 -0.26,0.1 -0.67,0.17 -0.93,0.05 -0.27,-0.13 -0.4,-0.36 -0.47,-0.65 -0.09,-0.36 -0.08,-0.47 -0.08,-0.84 0,-0.15 0.01,-0.3 0.03,-0.44 0.06,-0.43 0.09,-0.86 0.14,-1.29 0.02,-0.2 0.21,-1.53 0.21,-1.69 0,-0.03 -0.01,-0.04 -0.01,-0.06 -0.1,0 -0.1,0.12 -0.15,0.22l-0.21 0.53c-0.13,0.35 -0.18,0.68 -0.24,1.05 -0.01,0.05 -0.02,0.11 -0.02,0.17l-0.29 2.13c-0.02,0.16 -0.04,0.35 -0.04,0.52 0,0.08 -0.01,0.1 -0.01,0.18 -0.01,0.65 0.04,1.41 0.71,1.67 0.42,0.16 0.83,0.1 1.22,-0.13l0.22 -0.16c0.1,-0.08 0.19,-0.16 0.27,-0.26l0.17 -0.21c0.3,-0.4 0.54,-0.84 0.77,-1.28 0.09,-0.17 0.18,-0.33 0.29,-0.49 0.03,-0.05 0.07,-0.1 0.09,-0.16 0.11,-0.32 0.02,-0.36 -0.28,-0.28l-0.62 0.15c-0.29,0.06 -0.56,0.13 -0.85,0.15 0.04,-0.16 0.65,-0.59 0.84,-0.66 0.18,-0.07 0.44,-0.12 0.64,-0.05 0.18,0.06 0.42,0.26 0.72,-0.04l0.12 -0.13c0.09,-0.09 0.14,-0.18 0.22,-0.29 0.07,-0.1 0.13,-0.21 0.19,-0.32 0.03,-0.06 0.06,-0.11 0.09,-0.17 0.24,-0.53 0.39,-1.3 0.07,-1.84 -0.05,-0.09 -0.12,-0.18 -0.2,-0.25 -0.11,-0.1 -0.23,-0.21 -0.38,-0.26 -0.29,-0.1 -0.36,-0.07 -0.55,0.24l-0.32 0.62c-0.02,0.04 -0.03,0.06 -0.05,0.11l-0.13 0.34c-0.03,0.08 -0.06,0.16 -0.06,0.26z"/>
   <path d="M2.38 10.9c-0.35,0 -0.53,-0.01 -0.85,-0.12 -0.39,-0.13 -0.72,-0.34 -0.92,-0.7 -0.3,-0.54 -0.16,-1.02 -0.03,-1.55 0.07,-0.27 0.24,-0.68 0.34,-0.94 0.02,-0.04 0.26,-0.57 0.14,-0.6 -0.03,-0.01 -0.05,0.05 -0.08,0.11 -0.03,0.07 -0.06,0.12 -0.09,0.19 -0.06,0.13 -0.12,0.25 -0.19,0.37 -0.06,0.12 -0.11,0.25 -0.17,0.38 -0.03,0.06 -0.05,0.13 -0.08,0.2 -0.13,0.33 -0.26,0.71 -0.33,1.06 -0.06,0.32 -0.12,0.65 -0.13,0.98l0 0.23c0.02,0.61 0.22,1.18 0.79,1.56l0.21 0.13c0.18,0.1 0.58,0.21 0.84,0.21 0.48,0 0.88,-0.07 1.32,-0.28 0.02,-0.01 0.04,-0.02 0.06,-0.03l0.17 -0.09c0.08,-0.05 0.14,-0.09 0.22,-0.14 0.07,-0.05 0.14,-0.1 0.2,-0.15 0.07,-0.06 0.14,-0.11 0.2,-0.17 0.06,-0.06 0.12,-0.11 0.19,-0.17l0.33 -0.39 0.29 -0.42c0.14,-0.23 0.21,-0.37 0.32,-0.57l0.28 -0.63c0.15,-0.43 0.22,-0.62 0.34,-1.09 0.08,-0.33 0.18,-0.88 0.22,-1.22l0.1 -0.97c0.02,-0.19 0.11,-0.87 0.11,-0.97 0,-0.05 -0.08,-0.1 -0.16,0.14l-0.32 0.88c-0.13,0.37 -0.14,0.32 -0.17,0.75 -0,0.05 -0.02,0.06 -0.01,0.13 0.03,0.3 0.02,0.69 -0.02,0.99 -0.08,0.66 -0.36,1.27 -0.79,1.76 -0.03,0.03 -0.04,0.05 -0.07,0.08 -0.08,0.08 -0.13,0.16 -0.23,0.23l-0.25 0.21c-0.35,0.27 -0.83,0.46 -1.26,0.55 -0.17,0.03 -0.35,0.06 -0.55,0.06z"/>
   <path d="M17 5.8l0 0c-0,-0 -0.01,-0 -0,-0zm-4.44 0.23c0.07,0.05 0.14,0.11 0.21,0.17 0.12,0.1 0.32,0.24 0.42,0.35 0.22,0.23 0.18,0.23 0.42,0.04 0.16,-0.12 0.33,-0.39 0.43,-0.57l0.63 0.52c0.03,0.02 0.07,0.07 0.1,0.1 0.13,0.16 0.2,0.09 0.47,-0.19 0.06,-0.06 0.23,-0.3 0.25,-0.37 0.06,0.02 0.51,0.4 0.6,0.48 0.17,0.15 0.13,0.25 0.35,0.08 0.15,-0.12 0.44,-0.45 0.47,-0.61l0.63 0.53c0.05,0.05 0.14,0.18 0.22,0.18 0.08,0 0.35,-0.28 0.41,-0.36 0.04,-0.06 0.16,-0.22 0.18,-0.28 0.05,0 0.16,0.11 0.21,0.15 0.1,0.09 0.4,0.31 0.48,0.42 0.12,0.15 0.22,0.03 0.37,-0.12 0.18,-0.18 0.48,-0.58 0.48,-0.86 0,-0.34 -0.34,-0.57 -0.57,-0.74 -0.07,-0.05 -0.19,-0.15 -0.27,-0.17 -0.1,0.07 -0.49,0.79 -0.55,0.85 -0.01,-0.11 -0.08,-0.22 -0.13,-0.29 -0.07,-0.1 -0.12,-0.14 -0.21,-0.21 -0.04,-0.03 -0.07,-0.06 -0.11,-0.09 -0.09,-0.07 -0.29,-0.24 -0.39,-0.26 -0.08,0.06 -0.47,0.74 -0.56,0.88 -0.03,0.05 -0.04,0.1 -0.08,0.13 0,-0.06 0.01,-0.06 0.01,-0.1 0,-0.3 -0.27,-0.51 -0.45,-0.65 -0.04,-0.03 -0.07,-0.06 -0.12,-0.09 -0.08,-0.06 -0.17,-0.15 -0.27,-0.17 -0.07,0.05 -0.23,0.32 -0.29,0.42l-0.2 0.34c-0.02,0.04 -0.05,0.09 -0.07,0.11 -0.04,-0.08 -0.01,-0.18 -0.22,-0.41 -0.09,-0.09 -0.52,-0.43 -0.62,-0.45 -0.09,0.06 -0.47,0.73 -0.57,0.9 -0.03,0.05 -0.04,0.1 -0.08,0.13 0.1,-0.44 -0.38,-0.72 -0.69,-0.97 -0.04,-0.03 -0.08,-0.06 -0.15,-0.07l-0.47 0.76c-0.06,0.1 -0.23,0.39 -0.25,0.5z"/>
   <path d="M11.22 11.52c-0.23,0 -0.32,0.02 -0.51,0.17 -0.4,0.32 -0.62,0.57 -1.27,0.57 -0.27,0 -0.56,-0.09 -0.7,-0.22 -0.26,-0.24 -0.36,-0.65 -0.23,-1l0.09 -0.25c0.03,-0.07 0.03,-0.12 0.02,-0.19 -0.12,-0.03 -0.13,0.02 -0.22,0.21l-0.42 0.87c-0.01,0.02 -0.02,0.04 -0.04,0.06l-0.07 0.14c-0.17,0.34 -0.42,0.65 -0.68,0.92 -0.42,0.42 -1.03,0.74 -1.53,1.08 -0.01,0.01 -0.05,0.04 -0.06,0.04 -0.02,0.02 -0.03,0.03 -0.03,0.07 0.19,0.04 0.35,-0.02 0.52,-0.05 0.12,-0.02 0.25,-0.05 0.36,-0.07 0.17,-0.03 0.34,-0.07 0.47,-0.16 0.03,-0.02 0.04,-0.02 0.06,-0.04 0.1,-0.06 0.31,-0.28 0.39,-0.37 0.04,-0.04 0.06,-0.08 0.1,-0.12 0.09,-0.11 0.3,-0.46 0.35,-0.5 0,0.43 0.2,0.84 0.58,1.02 0.24,0.11 0.55,0.11 0.8,0.03 0.31,-0.1 0.54,-0.3 0.73,-0.54 0.06,-0.08 0.12,-0.16 0.18,-0.24 0.15,-0.19 0.4,-0.58 0.71,-0.58 0.2,0 0.39,0.15 0.72,-0.05 0.11,-0.07 0.11,-0.08 0.19,-0.15l0.12 -0.12c0.03,-0.03 0.06,-0.07 0.08,-0.11 0.11,-0.13 0.22,-0.32 0.29,-0.47 0.08,-0.17 0.14,-0.4 0.18,-0.58 0.02,-0.11 0.05,-0.22 0.06,-0.33l0.08 -0.69c0.01,-0.22 0.05,-0.53 0.05,-0.73 0.01,-0.2 0.07,-0.85 0.1,-1.05 0.02,-0.11 0.11,-0.42 0,-0.42 -0.09,0 -0.39,0.83 -0.43,0.93 -0.05,0.13 -0.09,0.23 -0.13,0.37 -0.21,0.77 -0,1.4 -0.16,2.07 -0.07,0.31 -0.18,0.56 -0.48,0.49 -0.09,-0.02 -0.2,-0.04 -0.3,-0.04z"/>
   <path d="M14.88 9.52c0,0.37 0.11,0.66 -0.1,0.87 -0.09,0.08 -0.27,0.23 -0.39,0.23 -0.03,-0.14 -0.07,-0.27 -0.13,-0.38 -0.14,-0.23 -0.34,-0.43 -0.63,-0.39 -0.21,0.03 -0.42,0.33 -0.53,0.51 -0.16,0.25 -0.44,0.84 -0.44,1.14 0,0.32 0.35,0.54 0.71,0.54 0.17,0 0.32,-0.04 0.46,-0.08 -0.08,0.35 -0.43,0.69 -0.69,0.93l-0.4 0.3c-0.11,0.08 -0.69,0.45 -0.76,0.53 -0.02,0.02 -0.04,0.05 -0.05,0.08 0.1,0 0.14,-0 0.23,-0.02 0.07,-0.01 0.15,-0.03 0.21,-0.04 0.19,-0.04 0.4,-0.11 0.59,-0.18 0.44,-0.15 0.5,-0.29 0.75,-0.65l0.22 -0.42c0.09,-0.18 0.27,-0.67 0.31,-0.72 0.02,-0.02 0.04,-0.05 0.06,-0.07 0.1,-0.12 0.03,-0.04 0.13,-0.13 0.07,-0.06 0.13,-0.14 0.19,-0.2 0.27,-0.27 0.62,-0.97 0.72,-1.32 0.15,-0.51 0.11,-1.31 0.11,-1.89 0,-0.05 -0.01,-0.11 -0.06,-0.11 -0.06,0 -0.07,0.11 -0.09,0.15 -0.01,0.04 -0.02,0.04 -0.03,0.08l-0.28 0.84c-0.04,0.12 -0.09,0.25 -0.09,0.4z"/>
   <path d="M23.21 10.05c0,0.4 0.03,0.73 0.15,1.02 0.04,0.11 0.14,0.27 0.23,0.33 0.05,0.04 0.12,0.09 0.17,0.11 0.2,0.09 0.37,0.05 0.55,-0.04 0.09,-0.05 0.17,-0.11 0.23,-0.19 0.15,-0.19 0.22,-0.28 0.32,-0.53 0.12,-0.3 0.31,-0.88 0.33,-1.26l0 -0.14c-0,-0.03 -0.01,-0.06 -0.01,-0.09 -0.15,-0.04 -0.17,0.19 -0.3,0.44 -0.1,0.2 -0.2,0.32 -0.47,0.32 -0.25,0 -0.41,-0.21 -0.5,-0.42 -0.21,-0.56 -0.08,-1.43 -0.03,-2 0.01,-0.11 0.02,-0.18 0.03,-0.28 0.04,-0.28 0.06,-0.56 0.1,-0.87l0.15 -1.13c0,-0.04 0.04,-0.25 0.03,-0.28 -0.01,-0.05 -0.05,-0.04 -0.08,-0.01 -0.04,0.05 -0.21,0.51 -0.24,0.58 -0.13,0.34 -0.15,0.34 -0.22,0.74 -0.08,0.48 -0.15,0.87 -0.23,1.38 -0.08,0.59 -0.24,1.75 -0.24,2.32z"/>
   <path d="M6.01 2.05c0,0.28 0.03,0.52 0.1,0.73 0.04,0.11 0.07,0.19 0.11,0.3 0.02,0.06 0.04,0.09 0.06,0.14 0.12,0.28 0.37,0.64 0.55,0.89 0.03,0.05 0.15,0.2 0.19,0.23l-0.1 -0.25c-0.03,-0.09 -0.06,-0.18 -0.09,-0.27 -0.11,-0.39 -0.13,-0.89 -0.02,-1.27 0.09,-0.33 0.31,-0.67 0.56,-0.88 0.02,-0.02 0.03,-0.02 0.05,-0.04 0.13,-0.11 0.34,-0.25 0.49,-0.33l0.12 -0.06c0.78,-0.41 0.46,-1.24 -0.22,-1.24 -0.37,0 -0.53,0.05 -0.85,0.22 -0.68,0.35 -0.96,1.1 -0.96,1.84z"/>
   <path d="M7.01 14.16c-0.17,0.25 -0.73,1.14 -0.73,1.25 0,0.04 0.16,0.16 0.2,0.19 0.09,0.08 0.33,0.25 0.42,0.34 0.1,0.1 0.14,0.17 0.21,0.18l0.03 0c0.06,-0.01 0.14,-0.07 0.28,-0.21 0.08,-0.08 0.31,-0.38 0.33,-0.48 0.03,0.01 0.18,0.14 0.21,0.17l0.51 0.45c0.04,0.05 0.08,0.07 0.12,0.07l0.01 0c0.08,-0 0.16,-0.09 0.25,-0.18 0.22,-0.22 0.47,-0.56 0.47,-0.89 0,-0.31 -0.36,-0.56 -0.58,-0.72 -0.22,-0.16 -0.08,-0.07 -0.26,-0.17l-0.09 0.12c-0.03,0.05 -0.05,0.08 -0.08,0.13 -0.06,0.09 -0.11,0.17 -0.16,0.27l-0.31 0.54c0.11,-0.46 -0.34,-0.72 -0.67,-0.97 -0.07,-0.05 -0.08,-0.05 -0.16,-0.09z"/>
   <path d="M10.86 15.21l0 0c-0,-0 -0.01,-0 -0,-0zm-0.7 0.92l-0.03 0c-0.05,-0.01 -0.1,-0.07 -0.21,-0.18l-0.42 -0.35c-0.03,-0.03 -0.2,-0.14 -0.2,-0.18 0,-0.05 0.37,-0.69 0.44,-0.81l0.28 -0.44c0.09,0.02 0.2,0.12 0.28,0.17 0.17,0.12 0.35,0.25 0.47,0.43 0.11,0.16 0.13,0.26 0.1,0.44l0.05 -0.07c0.12,-0.22 0.3,-0.51 0.43,-0.72l0.16 -0.24c0.07,0.03 0.08,0.03 0.14,0.08l0.43 0.33c0.01,0.01 0.01,0.01 0.03,0.02 0.1,0.1 0.24,0.29 0.24,0.45 0,0.34 -0.24,0.68 -0.47,0.9 -0.03,0.03 -0.2,0.18 -0.24,0.18 -0.1,0 -0.08,-0 -0.16,-0.09 -0.08,-0.09 -0.21,-0.2 -0.3,-0.27 -0.07,-0.06 -0.14,-0.11 -0.21,-0.17 -0.05,-0.04 -0.15,-0.15 -0.21,-0.16 -0.03,0.13 -0.3,0.46 -0.42,0.56 -0.09,0.07 -0.14,0.12 -0.19,0.13z"/>
   <path d="M4.82 12.47c0,0.16 0.31,0.08 0.41,0.07 0.3,-0.05 0.88,-0.13 1.13,-0.26 0.35,-0.17 0.48,-0.42 0.64,-0.75 0.03,-0.07 0.06,-0.13 0.08,-0.2 0.07,-0.18 0.25,-0.68 0.31,-0.8 0.1,-0.19 0.21,-0.33 0.39,-0.45l0.18 -0.1c0.07,-0.03 0.12,-0.06 0.19,-0.09 0.39,-0.2 0.63,-0.44 0.81,-0.86l0.14 -0.42c0.06,-0.21 0.15,-0.4 0.11,-0.58 -0.03,-0.01 -0.02,-0.01 -0.05,-0.01 -0.22,0 -0.24,0.53 -0.61,0.75 -0.06,0.04 -0.12,0.07 -0.18,0.1 -0.06,0.03 -0.11,0.06 -0.17,0.1 -0.57,0.34 -0.67,0.47 -0.99,1.07 -0.21,0.39 -0.28,0.75 -0.68,1.1 -0.15,0.13 -0.62,0.46 -0.8,0.58 -0.03,0.02 -0.05,0.03 -0.08,0.05l-0.58 0.39c-0.08,0.05 -0.26,0.19 -0.26,0.3z"/>
   <path d="M7.82 4.39c0.05,-0.03 0.13,-0.18 0.34,-0.28 0.54,-0.27 1.15,-0.03 1.62,0.26 0.37,0.22 0.72,0.4 1.18,0.4 0.14,0 0.27,-0.06 0.35,-0.12 0.41,-0.36 -0.03,-0.82 -0.4,-1.04 -0.26,-0.15 -0.62,-0.29 -0.95,-0.29 -0.58,0 -0.78,0.03 -1.29,0.25 -0.02,0.01 -0.04,0.02 -0.06,0.03 -0.02,0.01 -0.04,0.02 -0.06,0.04 -0.23,0.12 -0.44,0.3 -0.59,0.52 -0.03,0.05 -0.12,0.18 -0.14,0.23z"/>
   <path d="M3.1 3.95c0,0.21 0.06,0.34 0.21,0.49 0.27,0.26 0.92,0.12 1.24,0.03 0.16,-0.05 0.32,-0.07 0.49,-0.09 0.39,-0.04 0.77,-0.04 1.15,0.04 0.18,0.04 0.25,0.06 0.42,0.12 0.04,0.02 0.07,0.04 0.13,0.05 -0.05,-0.07 -0.44,-0.37 -0.51,-0.42 -0.22,-0.17 -0.45,-0.33 -0.7,-0.46 -0.05,-0.03 -0.1,-0.05 -0.15,-0.08 -0.29,-0.14 -0.76,-0.31 -1.11,-0.31 -0.31,0 -0.56,0.01 -0.82,0.16 -0.09,0.05 -0.16,0.09 -0.22,0.18 -0.03,0.04 -0.06,0.07 -0.08,0.13 -0.02,0.04 -0.04,0.11 -0.04,0.16zm3.63 0.65c0,0 0,-0.01 0,-0l0 0c-0,0 -0.01,0 -0,0z"/>
   <path d="M21.7 13.37c0,0.1 0.03,0.13 0.11,0.04 0.19,-0.21 0.43,-0.76 0.52,-1 0.12,-0.33 0.22,-0.68 0.26,-1.04 0.02,-0.18 0.08,-0.59 0.09,-0.77 0.01,-0.26 0.06,-0.54 0.06,-0.8 0,-0.05 0.01,-0.05 0.01,-0.09 0.01,-0.08 0,-0.16 0.02,-0.31 0.02,-0.13 0.02,-0.27 0.03,-0.4 0.01,-0.12 0.03,-0.27 0.05,-0.39 0.02,-0.14 0.04,-0.25 0.06,-0.38 0.02,-0.14 0.12,-0.43 0.02,-0.42 -0.07,0.01 -0.21,0.4 -0.26,0.5l-0.26 0.61c-0.14,0.32 -0.23,0.69 -0.24,1.05 -0,0.12 -0.03,0.28 -0.04,0.4l-0.01 0.29c-0,0.06 -0.01,0.05 -0.01,0.1 -0.02,0.3 -0.07,0.89 -0.12,1.18 -0.02,0.11 -0.03,0.24 -0.05,0.37 -0.02,0.13 -0.03,0.26 -0.06,0.38 -0.03,0.13 -0.05,0.24 -0.08,0.36l-0.1 0.33z"/>
   <path d="M9.32 10.8c0,0.07 0.08,0.05 0.15,-0.04 0.15,-0.2 0.1,-0.15 0.21,-0.33 0.02,-0.03 0.03,-0.04 0.04,-0.07 0.02,-0.05 0.04,-0.09 0.07,-0.15 0.28,-0.61 0.43,-1.21 0.49,-1.89 0.01,-0.13 0.03,-0.26 0.04,-0.4 0.01,-0.16 0.05,-0.4 0.05,-0.6 0,-0.05 0.01,-0.05 0.01,-0.09l0.04 -0.51c0,-0.13 0.01,-0.28 0.03,-0.4 0.03,-0.26 0.06,-0.49 0.11,-0.76 0.02,-0.13 0.07,-0.27 0.03,-0.35 -0.09,0.01 -0.12,0.13 -0.17,0.25l-0.13 0.3c-0.18,0.43 -0.38,0.81 -0.45,1.26 -0.04,0.3 -0.04,0.57 -0.07,0.8l-0.04 0.59c-0.05,0.45 -0.08,0.88 -0.16,1.33 -0.05,0.3 -0.06,0.42 -0.14,0.73 -0.01,0.05 -0.04,0.1 -0.05,0.16 -0.02,0.07 -0.05,0.12 -0.05,0.17z"/>
   <path d="M6.01 10.79c0,0.11 0.1,0.03 0.15,-0.04 0.1,-0.14 0.25,-0.4 0.31,-0.55 0.22,-0.54 0.37,-0.89 0.44,-1.51 0.03,-0.29 0.09,-0.7 0.1,-0.98 0,-0.05 0.01,-0.05 0.01,-0.09l0.06 -0.8c0,-0.04 -0,-0.07 0,-0.11 0.01,-0.13 0.03,-0.26 0.04,-0.4 0.02,-0.2 0.1,-0.73 0.14,-0.94 0.01,-0.05 0.05,-0.15 -0.03,-0.15 -0.04,0 -0.04,0.02 -0.05,0.05l-0.11 0.21c-0.02,0.06 -0.04,0.08 -0.06,0.14 -0.18,0.48 -0.42,0.82 -0.51,1.41l-0.1 1.18c-0.01,0.36 -0.18,1.65 -0.23,1.91 -0.02,0.11 -0.05,0.23 -0.08,0.34 -0.02,0.06 -0.03,0.11 -0.05,0.17 -0.01,0.05 -0.05,0.1 -0.05,0.17z"/>
   <path d="M16.78 9.91c0,-0.09 -0.11,-0.17 -0.22,0.16l-0.3 0.95c-0.07,0.21 -0.13,0.42 -0.2,0.63 -0.03,0.1 -0.08,0.21 -0.13,0.29 -0.03,0.05 -0.05,0.08 -0.07,0.13 -0.09,0.17 -0.23,0.32 -0.37,0.46l-1.25 1.06c-0.04,0.04 -0.2,0.18 -0.15,0.24 0.13,0.13 1.32,-0.29 1.56,-0.45 0.26,-0.17 0.41,-0.45 0.51,-0.75 0.07,-0.21 0.14,-0.41 0.2,-0.63 0.06,-0.22 0.11,-0.44 0.17,-0.68l0.23 -1.23c0.01,-0.07 0.03,-0.11 0.03,-0.19z"/>
   <path d="M23.26 13.14c0.03,0.04 0.53,0.44 0.67,0.57 0.07,0.07 0.14,0.19 0.25,0.12 0.13,-0.08 0.32,-0.29 0.41,-0.42 0.44,-0.62 0.29,-0.93 -0.31,-1.35 -0.29,-0.2 -0.23,-0.29 -0.48,0.11 -0.1,0.16 -0.51,0.83 -0.54,0.97z"/>
   <path d="M20.26 6.04c0.04,0.01 0.26,0.21 0.31,0.25l0.21 0.17c0.27,0.22 0.24,0.42 0.56,0.09 0.18,-0.18 0.48,-0.57 0.48,-0.83 0,-0.18 -0,-0.23 -0.13,-0.4 -0.11,-0.15 -0.41,-0.37 -0.57,-0.49 -0.04,-0.03 -0.09,-0.06 -0.15,-0.06 -0.01,0.05 -0.71,1.07 -0.71,1.27z"/>
   <path d="M2.12 9.03l0.21 0.17c0.08,0.06 0.14,0.11 0.21,0.17 0.02,0.02 0.03,0.03 0.05,0.04 0.03,0.02 0.03,0.02 0.06,0.05 0.05,0.04 0.28,0.27 0.3,0.27 0.12,0 0.15,-0.06 0.23,-0.14 0.18,-0.15 0.32,-0.35 0.43,-0.57 0.19,-0.37 0.08,-0.65 -0.23,-0.89 -0.1,-0.08 -0.42,-0.34 -0.52,-0.37l-0.48 0.76c-0.03,0.06 -0.06,0.1 -0.09,0.16 -0.03,0.06 -0.06,0.11 -0.09,0.17 -0.03,0.06 -0.05,0.12 -0.08,0.17z"/>
   <path d="M4.71 2.12c0,0.33 0.04,0.45 0.23,0.72 0.06,0.09 0.12,0.15 0.19,0.22 0.04,0.04 0.05,0.07 0.1,0.11 0.28,0.23 0.22,0.22 0.57,0.45 0.1,0.06 0.43,0.27 0.54,0.28 -0.08,-0.12 -0.14,-0.08 -0.34,-0.5 -0.25,-0.5 -0.19,-0.93 -0.36,-1.33 -0.18,-0.44 -0.67,-0.51 -0.86,-0.13 -0.03,0.05 -0.05,0.09 -0.05,0.17zm1.62 1.8l0 -0c-0,0 -0.01,0 -0,0z"/>
   <path d="M7.17 3.23c0,0.08 0,0.25 0.04,0.31 0,-0.15 0.08,-0.42 0.15,-0.55 0.19,-0.32 0.35,-0.45 0.67,-0.63 0.45,-0.25 1.19,-0.15 1.19,-0.59 0,-0.55 -1,-0.45 -1.42,-0.02l-0.1 0.1c-0.04,0.04 -0.06,0.07 -0.1,0.12 -0.11,0.13 -0.25,0.37 -0.31,0.53 -0.07,0.18 -0.12,0.5 -0.12,0.74z"/>
   <path d="M7.48 3.89c0.03,-0.01 0.01,-0 0.03,-0.03 0.01,-0.01 0.02,-0.03 0.02,-0.04 0.01,-0.03 0.02,-0.06 0.04,-0.09 0.09,-0.16 0.16,-0.24 0.29,-0.35 0.03,-0.03 0.05,-0.04 0.08,-0.06 0.28,-0.2 0.55,-0.25 0.93,-0.25 0.3,0 0.7,0.11 1.02,-0.04 0.25,-0.12 0.35,-0.39 0.05,-0.59 -0.17,-0.12 -0.34,-0.1 -0.55,-0.1 -0.4,0 -0.81,0.19 -1.12,0.4 -0.12,0.08 -0.27,0.19 -0.36,0.29l-0.1 0.12c-0.19,0.25 -0.25,0.42 -0.33,0.76z"/>
</svg>
